<svg id="SvgjsSvg1041" xmlns="http://www.w3.org/2000/svg" version="1.1" xmlns:xlink="http://www.w3.org/1999/xlink" xmlns:svgjs="http://svgjs.com/svgjs" width="17" height="17"><defs id="SvgjsDefs1042"></defs><path id="SvgjsPath1043" d="M1456.14 54.0549C1456.1000000000001 54.0549 1456.0700000000002 54.0615 1456.0300000000002 54.0623L1456.0300000000002 56.8546C1456.0700000000002 56.8532 1456.1000000000001 56.8484 1456.14 56.8484C1460.01 56.8484 1463.15 59.979 1463.15 63.826899999999995C1463.15 63.88569999999999 1463.14 63.942699999999995 1463.14 64.00179999999999L1465.94 64.00179999999999C1465.94 63.94269999999999 1465.95 63.885699999999986 1465.95 63.82689999999999C1465.95 58.43869999999999 1461.55 54.05489999999999 1456.14 54.05489999999999ZM1457.99 59.9682C1456.8700000000001 59.9682 1455.97 60.871700000000004 1455.97 61.983900000000006C1455.97 63.09720000000001 1456.8700000000001 63.999300000000005 1457.99 63.999300000000005C1459.11 63.999300000000005 1460.01 63.09720000000001 1460.01 61.983900000000006C1460.01 60.871700000000004 1459.11 59.9682 1457.99 59.9682ZM1456.14 48.9965C1456.1000000000001 48.9965 1456.0700000000002 48.998999999999995 1456.0300000000002 48.998999999999995L1456.0300000000002 51.79089999999999C1456.0700000000002 51.79089999999999 1456.1000000000001 51.78739999999999 1456.14 51.78739999999999C1462.8100000000002 51.78739999999999 1468.23 57.18809999999999 1468.23 63.826899999999995C1468.23 63.88569999999999 1468.22 63.942699999999995 1468.22 64.00179999999999L1471.02 64.00179999999999C1471.02 63.94269999999999 1471.03 63.885699999999986 1471.03 63.82689999999999C1471.03 55.64969999999999 1464.35 48.99649999999999 1456.1399999999999 48.99649999999999Z " fill="#000000" transform="matrix(1,0,0,1,-1455,-48)"></path></svg>