<svg id="SvgjsSvg1032" xmlns="http://www.w3.org/2000/svg" version="1.1" xmlns:xlink="http://www.w3.org/1999/xlink" xmlns:svgjs="http://svgjs.com/svgjs" width="16" height="13"><defs id="SvgjsDefs1033"></defs><path id="SvgjsPath1034" d="M868 2644.97L882 2644.97C882.552 2644.97 883 2645.4199999999996 883 2645.97L883 2655.97C883 2656.52 882.552 2656.97 882 2656.97L868 2656.97C867.448 2656.97 867 2656.52 867 2655.97L867 2645.97C867 2645.4199999999996 867.448 2644.97 868 2644.97ZM871 2654L879 2654L879 2653L871 2653ZM879 2649L881 2649L881 2647L879 2647ZM871 2652L879 2652L879 2651L871 2651Z " fill="#ffffff" transform="matrix(1,0,0,1,-867,-2644)"></path></svg>