<svg id="SvgjsSvg1008" xmlns="http://www.w3.org/2000/svg" version="1.1" xmlns:xlink="http://www.w3.org/1999/xlink" xmlns:svgjs="http://svgjs.com/svgjs" width="32" height="32"><defs id="SvgjsDefs1009"></defs><path id="SvgjsPath1010" d="M912 754.021L912 751C912 749.345 910.654 748 909 748C907.346 748 906 749.345 906 751L906 754.021C904.792 754.935 904 756.3689999999999 904 758C904 759.63 904.792 761.064 906 761.976L906 776.999C906 778.654 907.346 780 909 780C910.654 780 912 778.654 912 776.999L912 761.976C913.208 761.064 914 759.63 914 758C914 756.369 913.208 754.935 912 754.021ZM934 754.021L934 751C934 749.345 932.654 748 931 748C929.346 748 928 749.345 928 751L928 754.021C926.792 754.935 926 756.3689999999999 926 758C926 759.63 926.792 761.064 928 761.976L928 776.999C928 778.654 929.346 780 931 780C932.654 780 934 778.654 934 776.999L934 761.976C935.208 761.064 936 759.63 936 758C936 756.369 935.208 754.935 934 754.021ZM911.865 758.839C911.849 758.892 911.835 758.945 911.816 758.998C911.722 759.2610000000001 911.6 759.5110000000001 911.438 759.734C911.434 759.74 911.429 759.744 911.425 759.75C911.251 759.988 911.044 760.199 910.808 760.376C910.805 760.381 910.802 760.382 910.799 760.384C910.558 760.566 910.289 760.712 910 760.814C909.685 760.927 909.352 760.9989999999999 909 760.9989999999999C908.647 760.9989999999999 908.314 760.9269999999999 908 760.814C907.711 760.712 907.442 760.5659999999999 907.201 760.384C907.198 760.3820000000001 907.195 760.381 907.191 760.376C906.956 760.199 906.749 759.9879999999999 906.575 759.75C906.571 759.744 906.565 759.74 906.561 759.734C906.4000000000001 759.5110000000001 906.278 759.2610000000001 906.183 758.998C906.165 758.945 906.15 758.892 906.135 758.839C906.055 758.572 906 758.292 906 758C906 757.705 906.055 757.425 906.135 757.158C906.15 757.105 906.165 757.052 906.183 757.001C906.278 756.7379999999999 906.4 756.4879999999999 906.561 756.2629999999999C906.565 756.257 906.571 756.2529999999999 906.575 756.2479999999999C906.749 756.011 906.956 755.7979999999999 907.191 755.6199999999999C907.195 755.6189999999999 907.198 755.6149999999999 907.201 755.6129999999999C907.442 755.433 907.711 755.2869999999999 908 755.183C908.314 755.072 908.647 755 909 755C909.352 755 909.685 755.072 910 755.183C910.289 755.287 910.558 755.433 910.799 755.6129999999999C910.802 755.6149999999999 910.805 755.6189999999999 910.808 755.6199999999999C911.044 755.7979999999999 911.251 756.0109999999999 911.425 756.2479999999999C911.429 756.2529999999999 911.434 756.257 911.438 756.2629999999999C911.6 756.4879999999999 911.722 756.7379999999999 911.816 757.001C911.835 757.052 911.849 757.105 911.865 757.158C911.945 757.4250000000001 912 757.705 912 758C912 758.292 911.945 758.572 911.865 758.839ZM933.865 758.839C933.849 758.892 933.835 758.945 933.816 758.998C933.722 759.2610000000001 933.6 759.5110000000001 933.438 759.734C933.434 759.74 933.429 759.744 933.425 759.75C933.251 759.988 933.044 760.199 932.808 760.376C932.805 760.381 932.802 760.382 932.799 760.384C932.557 760.566 932.289 760.712 932 760.814C931.685 760.927 931.352 760.9989999999999 931 760.9989999999999C930.647 760.9989999999999 930.314 760.9269999999999 930 760.814C929.711 760.712 929.442 760.5659999999999 929.201 760.384C929.198 760.3820000000001 929.195 760.381 929.191 760.376C928.956 760.199 928.749 759.9879999999999 928.575 759.75C928.571 759.744 928.565 759.74 928.561 759.734C928.4000000000001 759.5110000000001 928.278 759.2610000000001 928.183 758.998C928.165 758.945 928.15 758.892 928.135 758.839C928.055 758.572 928 758.292 928 758C928 757.705 928.055 757.425 928.135 757.158C928.15 757.105 928.165 757.052 928.183 757.001C928.278 756.7379999999999 928.4 756.4879999999999 928.561 756.2629999999999C928.565 756.257 928.571 756.2529999999999 928.575 756.2479999999999C928.749 756.011 928.956 755.7979999999999 929.191 755.6199999999999C929.195 755.6189999999999 929.198 755.6149999999999 929.201 755.6129999999999C929.442 755.433 929.711 755.2869999999999 930 755.183C930.314 755.072 930.647 755 931 755C931.352 755 931.685 755.072 932 755.183C932.289 755.287 932.557 755.433 932.799 755.6129999999999C932.802 755.6149999999999 932.805 755.6189999999999 932.808 755.6199999999999C933.044 755.7979999999999 933.251 756.0109999999999 933.425 756.2479999999999C933.429 756.2529999999999 933.434 756.257 933.438 756.2629999999999C933.6 756.4879999999999 933.722 756.7379999999999 933.816 757.001C933.835 757.052 933.849 757.105 933.865 757.158C933.945 757.4250000000001 934 757.705 934 758C934 758.292 933.945 758.572 933.865 758.839ZM910 776.999C910 777.552 909.553 778 909 778C908.447 778 908 777.552 908 776.999L908 762.898C908.323 762.964 908.657 763 909 763C909.343 763 909.677 762.964 910 762.898ZM932 776.999C932 777.552 931.553 778 931 778C930.447 778 930 777.552 930 776.999L930 762.898C930.323 762.964 930.657 763 931 763C931.343 763 931.677 762.964 932 762.898ZM908 751C908 750.447 908.447 750 909 750C909.553 750 910 750.447 910 751L910 753.099C909.677 753.0350000000001 909.343 753 909 753C908.657 753 908.323 753.035 908 753.099ZM930 751C930 750.447 930.447 750 931 750C931.553 750 932 750.447 932 751L932 753.099C931.677 753.0350000000001 931.343 753 931 753C930.657 753 930.323 753.035 930 753.099ZM923 766.021L923 751C923 749.345 921.654 748 920 748C918.346 748 917 749.345 917 751L917 766.021C915.792 766.935 915 768.3689999999999 915 769.9989999999999C915 771.6299999999999 915.792 773.064 917 773.9759999999999L917 776.9989999999999C917 778.6539999999999 918.346 779.9999999999999 920 779.9999999999999C921.654 779.9999999999999 923 778.6539999999999 923 776.9989999999999L923 773.9759999999999C924.208 773.0639999999999 925 771.6299999999999 925 769.9989999999999C925 768.3689999999999 924.208 766.935 923 766.021ZM922.865 770.839C922.85 770.892 922.835 770.945 922.816 770.998C922.722 771.2610000000001 922.599 771.5110000000001 922.438 771.734C922.435 771.74 922.429 771.744 922.425 771.749C922.251 771.988 922.044 772.1990000000001 921.808 772.376C921.805 772.381 921.802 772.382 921.799 772.384C921.557 772.566 921.289 772.712 921 772.814C920.685 772.927 920.352 773 920 773C919.647 773 919.314 772.927 919 772.814C918.711 772.712 918.442 772.5659999999999 918.201 772.384C918.198 772.3820000000001 918.195 772.381 918.191 772.376C917.956 772.199 917.749 771.9879999999999 917.575 771.749C917.571 771.744 917.565 771.74 917.561 771.734C917.4000000000001 771.5110000000001 917.278 771.2610000000001 917.183 770.998C917.165 770.945 917.15 770.892 917.135 770.839C917.055 770.572 917 770.293 917 769.999C917 769.705 917.055 769.4250000000001 917.135 769.158C917.15 769.105 917.165 769.052 917.183 769.001C917.278 768.7379999999999 917.4 768.4879999999999 917.561 768.2629999999999C917.565 768.257 917.571 768.2529999999999 917.575 768.2479999999999C917.749 768.011 917.956 767.7979999999999 918.191 767.621C918.195 767.619 918.198 767.615 918.201 767.6129999999999C918.442 767.433 918.711 767.2869999999999 919 767.183C919.314 767.072 919.647 767 920 767C920.352 767 920.685 767.072 921 767.183C921.289 767.287 921.557 767.433 921.799 767.6129999999999C921.802 767.6149999999999 921.805 767.6189999999999 921.808 767.621C922.044 767.798 922.251 768.011 922.425 768.2479999999999C922.429 768.2529999999999 922.435 768.257 922.438 768.2629999999999C922.5989999999999 768.4879999999999 922.722 768.7379999999999 922.816 769.001C922.835 769.052 922.85 769.105 922.865 769.158C922.945 769.4250000000001 923 769.705 923 769.999C923 770.293 922.945 770.572 922.865 770.839ZM919 751C919 750.447 919.447 750 920 750C920.553 750 921 750.447 921 751L921 765.099C920.677 765.0350000000001 920.343 765 920 765C919.657 765 919.323 765.035 919 765.099ZM921 776.999C921 777.552 920.553 778 920 778C919.447 778 919 777.552 919 776.999L919 774.898C919.323 774.964 919.657 775 920 775C920.343 775 920.677 774.964 921 774.898Z " fill="#f4b60d" transform="matrix(1,0,0,1,-904,-748)"></path></svg>