<svg id="SvgjsSvg1038" xmlns="http://www.w3.org/2000/svg" version="1.1" xmlns:xlink="http://www.w3.org/1999/xlink" xmlns:svgjs="http://svgjs.com/svgjs" width="17" height="14"><defs id="SvgjsDefs1039"></defs><path id="SvgjsPath1040" d="M1438.56 51.5617C1438.29 51.7102 1437.48 52.0069 1436.73 52.0809C1437.21 51.8206 1437.93 50.9669 1438.1100000000001 50.2881C1437.64 50.5849 1436.5700000000002 51.0178 1436.0500000000002 51.0178C1436.0500000000002 51.0178 1436.0500000000002 51.0186 1436.0500000000002 51.0195C1435.4500000000003 50.3907 1434.6000000000001 49.9992 1433.66 49.9992C1431.8400000000001 49.9992 1430.3600000000001 51.476600000000005 1430.3600000000001 53.2999C1430.3600000000001 53.553200000000004 1430.39 53.7989 1430.44 54.0353L1430.44 54.0353C1427.97 53.972 1425.0800000000002 52.7326 1423.45 50.611399999999996C1422.45 52.343599999999995 1423.32 54.26969999999999 1424.45 54.9719C1424.07 55.0019 1423.3500000000001 54.9281 1423.01 54.599799999999995C1422.99 55.7493 1423.54 57.27269999999999 1425.56 57.8244C1425.1699999999998 58.034299999999995 1424.48 57.974799999999995 1424.1799999999998 57.928799999999995C1424.2899999999997 58.9004 1425.6499999999999 60.169799999999995 1427.1299999999999 60.169799999999995C1426.6 60.7814 1424.8 61.89379999999999 1422.56 61.538999999999994C1424.08 62.464099999999995 1425.85 62.99929999999999 1427.73 62.99929999999999C1433.05 62.99929999999999 1437.19 58.68349999999999 1436.96 53.35929999999999C1436.96 53.35339999999999 1436.96 53.34649999999999 1436.96 53.34169999999999C1436.96 53.32719999999999 1436.96 53.312499999999986 1436.96 53.29989999999999C1436.96 53.28329999999999 1436.96 53.267699999999984 1436.96 53.249999999999986C1437.45 52.91999999999999 1438.1000000000001 52.33419999999999 1438.56 51.56169999999999Z " fill="#248cec" transform="matrix(1,0,0,1,-1422,-49)"></path></svg>