<svg id="SvgjsSvg1044" xmlns="http://www.w3.org/2000/svg" version="1.1" xmlns:xlink="http://www.w3.org/1999/xlink" xmlns:svgjs="http://svgjs.com/svgjs" width="17" height="16"><defs id="SvgjsDefs1045"></defs><path id="SvgjsPath1046" d="M1504.01 57.3145L1504.01 62.9838L1501.01 62.9838L1501.01 57.5381C1501.01 56.4212 1500.69 55.3039 1499.37 55.3039C1498.06 55.3039 1497.01 56.4212 1497.01 57.565599999999996L1497.01 62.983799999999995L1494 62.983799999999995L1494 52.96509999999999L1497.01 52.96509999999999L1497.01 54.354699999999994C1497.93 53.181599999999996 1499.23 52.651599999999995 1500.69 52.651599999999995C1502.14 52.651599999999995 1504.01 53.37709999999999 1504.01 57.314499999999995ZM1489 63L1489 53L1492 53L1492 63ZM1492.42 49.7133C1492.42 50.6838 1491.5500000000002 51.471799999999995 1490.47 51.471799999999995C1489.38 51.471799999999995 1488.51 50.6838 1488.51 49.7133C1488.51 48.741299999999995 1489.3799999999999 47.9522 1490.47 47.9522C1491.55 47.9522 1492.42 48.741299999999995 1492.42 49.7133Z " fill="#000000" transform="matrix(1,0,0,1,-1488,-47)"></path></svg>