<svg id="SvgjsSvg1017" xmlns="http://www.w3.org/2000/svg" version="1.1" xmlns:xlink="http://www.w3.org/1999/xlink" xmlns:svgjs="http://svgjs.com/svgjs" width="14" height="15"><defs id="SvgjsDefs1018"></defs><path id="SvgjsPath1019" d="M1509.68 130.999C1512.8100000000002 130.999 1515.3500000000001 133.541 1515.3500000000001 136.676C1515.3500000000001 138.01988999999998 1514.88325 139.25463 1514.10335 140.22684999999998C1514.1303500000001 140.24334 1514.15607 140.26306 1514.18 140.28599999999997L1515.11618 141.22470999999996L1515.17 141.17099999999996C1515.3500000000001 140.98699999999997 1515.65 140.98699999999997 1515.8300000000002 141.17099999999996L1517.8300000000002 143.16699999999997C1518.0100000000002 143.35099999999997 1518.0100000000002 143.64899999999997 1517.8300000000002 143.83199999999997L1516.8300000000002 144.83099999999996C1516.65 145.01399999999995 1516.3500000000001 145.01399999999995 1516.17 144.83099999999996L1514.17 142.83399999999995C1513.99 142.65099999999995 1513.99 142.35299999999995 1514.17 142.16899999999995L1514.22479 142.11431999999996L1513.29 141.17699999999996C1513.26622 141.15405999999996 1513.24577 141.12911999999997 1513.22864 141.10274999999996C1512.25699 141.88433999999995 1511.02279 142.35199999999995 1509.68 142.35199999999995C1506.54 142.35199999999995 1504 139.81099999999995 1504 136.67599999999996C1504 133.54099999999997 1506.54 130.99899999999997 1509.68 130.99899999999997ZM1506.19 136.676C1506.19 138.60299999999998 1507.75 140.166 1509.68 140.166C1511.6000000000001 140.166 1513.17 138.603 1513.17 136.676C1513.17 134.748 1511.6000000000001 133.18599999999998 1509.68 133.18599999999998C1507.75 133.18599999999998 1506.19 134.748 1506.19 136.676Z " fill="#ffffff" transform="matrix(1,0,0,1,-1504,-130)"></path></svg>