<svg id="SvgjsSvg1011" xmlns="http://www.w3.org/2000/svg" version="1.1" xmlns:xlink="http://www.w3.org/1999/xlink" xmlns:svgjs="http://svgjs.com/svgjs" width="32" height="26"><defs id="SvgjsDefs1012"></defs><path id="SvgjsPath1013" d="M1327.83 759.445C1327.6499999999999 759.166 1327.33 759 1327 759L1326 759C1325.45 759 1325 759.447 1325 760L1325 766C1325 766.552 1325.45 767 1326 767L1330 767C1330.55 767 1331 766.552 1331 766L1331 764.5C1331 764.302 1330.94 764.109 1330.83 763.945ZM1330 766L1326 766L1326 760L1327 760L1330 764.5ZM1334.5 763.335L1330.5 757.335C1329.94 756.499 1329 756 1328 756L1324 756L1324 754C1324 752.345 1322.65 751 1321 751L1306 751C1304.35 751 1303 752.345 1303 754L1303 765C1303 766.654 1304.35 767.999 1306 767.999L1306 771C1306 772.654 1307.35 774 1309 774L1310.14 774C1310.5900000000001 775.72 1312.14 776.999 1314 776.999C1315.86 776.999 1317.41 775.72 1317.86 774L1323.1399999999999 774C1323.59 775.72 1325.1399999999999 776.999 1326.9999999999998 776.999C1328.8599999999997 776.999 1330.4099999999999 775.72 1330.8599999999997 774L1331.9999999999998 774C1333.6499999999999 774 1334.9999999999998 772.654 1334.9999999999998 771L1334.9999999999998 765C1334.9999999999998 764.406 1334.8299999999997 763.83 1334.4999999999998 763.335ZM1333 771C1333 771.552 1332.55 772 1332 772L1330.86 772C1330.4099999999999 770.279 1328.86 769 1327 769C1325.14 769 1323.59 770.279 1323.14 772L1317.8600000000001 772C1317.41 770.279 1315.8600000000001 769 1314.0000000000002 769C1312.1400000000003 769 1310.5900000000001 770.279 1310.1400000000003 772L1309.0000000000002 772C1308.4500000000003 772 1308.0000000000002 771.552 1308.0000000000002 771L1308.0000000000002 767.999L1321.0000000000002 767.999C1322.6500000000003 767.999 1324.0000000000002 766.654 1324.0000000000002 765L1324.0000000000002 758L1328.0000000000002 758C1328.3300000000002 758 1328.6500000000003 758.167 1328.8300000000002 758.445L1332.8300000000002 764.445C1332.94 764.609 1333.0000000000002 764.802 1333.0000000000002 765ZM1306 766C1305.45 766 1305 765.552 1305 765L1305 754C1305 753.447 1305.45 753 1306 753L1321 753C1321.55 753 1322 753.447 1322 754L1322 765C1322 765.552 1321.55 766 1321 766ZM1314 775C1312.89 775 1312 774.104 1312 773C1312 771.895 1312.89 771 1314 771C1315.1 771 1316 771.895 1316 773C1316 774.104 1315.1 775 1314 775ZM1327 775C1325.89 775 1325 774.104 1325 773C1325 771.895 1325.89 771 1327 771C1328.1 771 1329 771.895 1329 773C1329 774.104 1328.1 775 1327 775Z " fill="#f4b60d" transform="matrix(1,0,0,1,-1303,-751)"></path></svg>