<svg id="SvgjsSvg1026" xmlns="http://www.w3.org/2000/svg" version="1.1" xmlns:xlink="http://www.w3.org/1999/xlink" xmlns:svgjs="http://svgjs.com/svgjs" width="12" height="16"><defs id="SvgjsDefs1027"></defs><path id="SvgjsPath1028" d="M388 2643C391.313 2643 394 2645.69 394 2649C394 2652.31 388 2659 388 2659C388 2659 382 2652.31 382 2649C382 2645.69 384.686 2643 388 2643ZM385 2649C385 2650.66 386.343 2652 388 2652C389.657 2652 391 2650.66 391 2649C391 2647.34 389.657 2646 388 2646C386.343 2646 385 2647.34 385 2649Z " fill="#ffffff" transform="matrix(1,0,0,1,-382,-2643)"></path></svg>